HIERARCHY
ROOT SpineBase
{
  OFFSET 0.000000 0.000000 0.000000
  CHANNELS 6 Xposition Yposition Zposition Zrotation Xrotation Yrotation
  JOINT SpineMid
  {
    OFFSET -0.000000 28.685918 0.000000
    CHANNELS 3 Zrotation Xrotation Yrotation
    JOINT SpineShoulder
    {
      OFFSET -0.119265 21.293336 -0.781895
      CHANNELS 3 Zrotation Xrotation Yrotation
      JOINT Neck
      {
        OFFSET -0.081201 7.047017 -0.583201
        CHANNELS 3 Zrotation Xrotation Yrotation
        JOINT Head
        {
          OFFSET -2.407226 11.898387 -0.960509
          CHANNELS 3 Zrotation Xrotation Yrotation
          End Site
          {
            OFFSET 0 0 0
          }
        }
      }
      JOINT ShoulderLeft
      {
        OFFSET -16.031430 -2.010444 5.481838
        CHANNELS 3 Zrotation Xrotation Yrotation
        JOINT ElbowLeft
        {
          OFFSET -4.406343 -25.106505 2.861382
          CHANNELS 3 Zrotation Xrotation Yrotation
          JOINT WristLeft
          {
            OFFSET -4.371334 -20.275791 -2.793306
            CHANNELS 3 Zrotation Xrotation Yrotation
            JOINT HandLeft
            {
              OFFSET 1.190785 -5.547318 -3.281605
              CHANNELS 3 Zrotation Xrotation Yrotation
              JOINT HandTipLeft
              {
                OFFSET 0.315411 -5.597766 -2.413729
                CHANNELS 3 Zrotation Xrotation Yrotation
                End Site
                {
                  OFFSET 0 0 0
                }
              }
              JOINT ThumbLeft
              {
                OFFSET 4.019585 0.540618 -5.118804
                CHANNELS 3 Zrotation Xrotation Yrotation
                End Site
                {
                  OFFSET 0 0 0
                }
              }
            }
          }
        }
      }
      JOINT ShoulderRight
      {
        OFFSET 14.972385 -1.994369 -5.851017
        CHANNELS 3 Zrotation Xrotation Yrotation
        JOINT ElbowRight
        {
          OFFSET 5.369205 -25.243421 -2.814992
          CHANNELS 3 Zrotation Xrotation Yrotation
          JOINT WristRight
          {
            OFFSET -0.934421 -22.199926 -5.392836
            CHANNELS 3 Zrotation Xrotation Yrotation
            JOINT HandRight
            {
              OFFSET -1.846890 -7.767565 -1.726574
              CHANNELS 3 Zrotation Xrotation Yrotation
              JOINT HandTipRight
              {
                OFFSET -0.176115 -7.068533 -0.783809
                CHANNELS 3 Zrotation Xrotation Yrotation
                End Site
                {
                  OFFSET 0 0 0
                }
              }
              JOINT ThumbRight
              {
                OFFSET -3.142793 1.215533 -0.644303
                CHANNELS 3 Zrotation Xrotation Yrotation
                End Site
                {
                  OFFSET 0 0 0
                }
              }
            }
          }
        }
      }
    }
  }
  JOINT HipLeft
  {
    OFFSET -7.226373 0.524844 -1.698119
    CHANNELS 3 Zrotation Xrotation Yrotation
    JOINT KneeLeft
    {
      OFFSET -6.039997 -33.545665 -4.606126
      CHANNELS 3 Zrotation Xrotation Yrotation
      JOINT AnkleLeft
      {
        OFFSET 2.573479 -36.952922 0.866657
        CHANNELS 3 Zrotation Xrotation Yrotation
        JOINT FootLeft
        {
          OFFSET -1.343081 -3.110531 -12.045660
          CHANNELS 3 Zrotation Xrotation Yrotation
          End Site
          {
            OFFSET 0 0 0
          }
        }
      }
    }
  }
  JOINT HipRight
  {
    OFFSET 6.488949 0.689707 -5.177974
    CHANNELS 3 Zrotation Xrotation Yrotation
    JOINT KneeRight
    {
      OFFSET 4.052525 -26.741073 1.157498
      CHANNELS 3 Zrotation Xrotation Yrotation
      JOINT AnkleRight
      {
        OFFSET 2.348848 -37.346099 10.669572
        CHANNELS 3 Zrotation Xrotation Yrotation
        JOINT FootRight
        {
          OFFSET -2.587276 -6.499319 -7.390153
          CHANNELS 3 Zrotation Xrotation Yrotation
          End Site
          {
            OFFSET 0 0 0
          }
        }
      }
    }
  }
}
MOTION
Frames: 14
Frame Time: 0.033333
44.851135 83.866151 395.954697 0.000000 0.000000 14.236684 -0.000000 0.000000 -14.236684 -0.000000 0.000000 0.000000 -0.000000 0.000000 0.000000 0.000000 0.000000 0.000000 -0.000000 0.000000 0.000000 -0.000000 0.000000 0.000000 -0.000000 0.000000 0.000000 -0.000000 0.000000 0.000000 0.000000 0.000000 0.000000 0.000000 0.000000 0.000000 -0.000000 0.000000 0.000000 -0.000000 0.000000 0.000000 -0.000000 0.000000 0.000000 -0.000000 0.000000 0.000000 0.000000 0.000000 0.000000 0.000000 0.000000 0.000000 -0.000000 0.000000 -14.236684 -0.000000 0.000000 0.000000 -0.000000 0.000000 0.000000 0.000000 0.000000 0.000000 -0.000000 0.000000 -14.236684 -0.000000 0.000000 0.000000 -0.000000 0.000000 0.000000 0.000000 0.000000 0.000000
44.609680 83.519984 395.920580 -0.019664 -0.520480 14.219687 0.146916 0.499702 -14.220417 -0.000000 0.000000 0.000000 1.684488 0.196327 0.172337 0.000000 0.000000 0.000000 -0.000000 0.000000 0.000000 0.558950 0.820816 -0.257991 -4.218643 -1.235748 2.285531 3.676462 0.263632 -2.109839 0.000000 0.000000 0.000000 0.000000 0.000000 0.000000 -0.000000 0.000000 0.000000 -0.000000 0.000000 0.000000 -0.000000 0.000000 0.000000 0.311100 3.192597 -0.122362 0.000000 0.000000 0.000000 0.000000 0.000000 0.000000 -0.214596 1.660230 -14.312711 0.637263 -1.035087 0.104864 -0.097490 -0.946301 0.810960 0.000000 0.000000 0.000000 0.681282 -0.173845 -14.271350 -0.683926 0.521024 0.052523 1.018579 2.923475 -2.289611 0.000000 0.000000 0.000000
44.333994 83.157800 395.864208 0.075727 -1.117415 14.208143 -0.011865 -0.220638 -14.210825 -0.004362 -0.058124 -0.003369 3.430139 1.675598 0.254905 0.000000 0.000000 0.000000 0.840476 0.994855 0.166831 -0.038825 1.925316 -0.648600 -7.651738 -2.860719 3.980430 5.737925 1.563237 -3.298624 0.000000 0.000000 0.000000 0.000000 0.000000 0.000000 0.149181 -0.012594 -0.323665 1.053578 0.486380 0.027608 -0.096931 0.402012 0.130166 -0.556661 6.393590 -0.107150 0.000000 0.000000 0.000000 0.000000 0.000000 0.000000 -0.414898 3.210249 -14.373369 2.403131 -2.372691 0.249384 -1.398023 -1.346100 1.340566 0.000000 0.000000 0.000000 1.177963 -0.102338 -14.304434 -1.244326 0.925407 0.096624 1.702094 5.631101 -4.057995 0.000000 0.000000 0.000000
44.024077 82.779597 395.785579 0.287456 -1.790655 14.199274 0.000434 -0.306854 -14.193583 0.001601 -0.078076 0.003794 5.214249 2.412068 0.276102 0.000000 0.000000 0.000000 1.175813 1.328616 0.277621 -0.480234 2.957494 -0.946583 -10.216559 -4.828176 5.056612 7.886772 3.131807 -4.358722 0.000000 0.000000 0.000000 0.000000 0.000000 0.000000 0.333943 0.094010 -0.531154 1.400979 0.443931 0.041617 -0.396692 0.774563 0.261321 -0.624689 8.806626 -0.221660 0.000000 0.000000 0.000000 0.000000 0.000000 0.000000 -0.594762 4.631196 -14.418007 3.320103 -3.247256 0.384806 -1.949303 -1.955719 1.588543 0.000000 0.000000 0.000000 1.487475 0.216848 -14.332064 -1.678927 1.211810 0.129077 1.997046 8.101570 -5.252474 0.000000 0.000000 0.000000
43.679930 82.385377 395.684694 0.616467 -2.539634 14.189304 0.024855 -0.375723 -14.165558 0.012765 -0.091722 0.016776 7.038527 3.059190 0.220469 0.000000 0.000000 0.000000 1.457018 1.550347 0.409226 -1.214591 4.036152 -1.211163 -11.851715 -7.118843 5.499816 9.489546 5.359825 -4.982378 0.000000 0.000000 0.000000 0.000000 0.000000 0.000000 0.596455 0.266475 -0.774807 1.609469 0.220455 0.069519 -0.835123 1.252860 0.434581 -0.568331 10.599857 -0.368868 0.000000 0.000000 0.000000 0.000000 0.000000 0.000000 -0.748520 5.904963 -14.444499 4.029707 -3.895154 0.507925 -2.413744 -2.527020 1.569283 0.000000 0.000000 0.000000 1.607949 0.785098 -14.346694 -1.986071 1.379372 0.147448 1.870022 10.321710 -5.847402 0.000000 0.000000 0.000000
43.301552 81.975139 395.561554 1.063331 -3.363281 14.173502 0.061229 -0.426190 -14.119248 0.028993 -0.098903 0.035416 8.891503 3.601155 0.086463 0.000000 0.000000 0.000000 1.686969 1.656969 0.564467 -2.250910 5.162585 -1.426261 -12.501218 -9.748434 5.296289 10.468097 8.354814 -5.119076 0.000000 0.000000 0.000000 0.000000 0.000000 0.000000 0.943971 0.497065 -1.060404 1.655960 -0.167044 0.123588 -1.387514 1.817996 0.649902 -0.401789 11.733800 -0.540940 0.000000 0.000000 0.000000 0.000000 0.000000 0.000000 -0.871021 7.014045 -14.449039 4.519359 -4.303805 0.606236 -2.798442 -3.063740 1.291670 0.000000 0.000000 0.000000 1.537813 1.602691 -14.337106 -2.164669 1.427595 0.150132 1.307253 12.279123 -5.840542 0.000000 0.000000 0.000000
42.856583 81.489674 395.405123 1.731093 -4.413168 14.094154 0.167050 -0.500079 -13.984339 0.088405 -0.107412 0.067810 10.249778 4.954422 -0.100643 0.000000 0.000000 0.000000 2.030242 1.671563 0.786506 -3.891806 7.063170 -1.760167 -13.252708 -15.024237 4.406517 17.947782 14.922105 -8.759834 0.000000 0.000000 0.000000 0.000000 0.000000 0.000000 1.426890 0.788117 -1.480762 1.277725 -0.719353 0.294443 -2.307054 2.670200 0.969710 0.025041 12.059315 -0.755304 0.000000 0.000000 0.000000 0.000000 0.000000 0.000000 -0.950552 8.104757 -14.383532 4.686192 -4.534577 0.676669 -2.483720 -3.050203 -2.255064 0.000000 0.000000 0.000000 1.031939 2.625004 -14.261190 -2.096334 1.610236 0.183374 2.303573 10.883022 -6.522516 0.000000 0.000000 0.000000
42.409092 81.070162 395.261892 2.129552 -5.285441 14.181048 0.130506 -0.431793 -14.031115 0.307109 -0.218743 0.087161 14.328232 4.224427 -0.471720 0.000000 0.000000 0.000000 2.052117 1.883382 0.908643 -4.954767 7.523095 -1.726966 -10.781102 -16.026605 2.977489 15.351863 17.847243 -6.980797 0.000000 0.000000 0.000000 0.000000 0.000000 0.000000 2.377566 0.942691 -1.922618 0.628066 -1.249278 0.517578 -2.974567 3.259576 1.286186 1.157911 11.647137 -1.143272 0.000000 0.000000 0.000000 0.000000 0.000000 0.000000 -0.675398 8.549274 -14.483334 4.624173 -4.243200 0.681384 -3.637017 -2.916795 0.763641 0.000000 0.000000 0.000000 0.680647 3.290371 -14.363882 -0.911198 1.930165 0.511055 -0.640372 14.935990 -5.916644 0.000000 0.000000 0.000000
41.949214 80.639582 395.084841 2.887225 -6.297967 14.139120 0.301092 -0.519999 -13.907861 0.132172 -0.095662 0.116020 16.064937 3.786403 -0.826363 0.000000 0.000000 0.000000 2.454522 1.301463 1.227845 -7.439368 9.100521 -1.628809 -7.798636 -20.304112 0.637039 7.558939 22.003826 -1.236569 0.000000 0.000000 0.000000 0.000000 0.000000 0.000000 3.205483 1.120809 -2.399194 -0.113570 -1.749539 0.765186 -3.710186 3.972443 1.589113 0.972852 10.403688 -1.134958 0.000000 0.000000 0.000000 0.000000 0.000000 0.000000 -0.679091 9.118814 -14.417205 4.517365 -3.850326 0.676360 -4.088781 -4.173049 1.190910 0.000000 0.000000 0.000000 0.383223 4.421382 -14.262280 -0.803506 1.908574 0.579796 -2.706295 13.568034 -3.590258 0.000000 0.000000 0.000000
41.477238 80.227023 394.873634 3.872848 -7.273471 14.180891 0.417687 -0.521331 -13.835026 -0.110174 0.093357 0.151209 16.613520 2.979162 -1.123216 0.000000 0.000000 0.000000 2.147412 0.705227 1.499881 -8.523782 9.682785 -1.454000 -4.912971 -22.274326 -1.453257 3.964111 25.417146 1.730239 0.000000 0.000000 0.000000 0.000000 0.000000 0.000000 3.858143 1.209753 -2.849329 -0.714520 -2.216814 0.973950 -4.223468 4.604245 1.822597 0.645152 10.456742 -1.152554 0.000000 0.000000 0.000000 0.000000 0.000000 0.000000 -0.788089 9.370453 -14.384464 4.197600 -3.053913 0.615551 -4.887843 -3.555948 2.155477 0.000000 0.000000 0.000000 -0.260848 6.600280 -14.070450 0.134403 0.169782 0.612584 -6.417146 16.835539 -1.155352 0.000000 0.000000 0.000000
40.947581 79.828127 394.653093 4.980723 -8.232193 14.118811 0.456921 -0.481150 -13.629031 -0.303908 0.222486 0.191371 15.485388 2.338854 -1.398632 0.000000 0.000000 0.000000 1.386909 -0.156742 1.831734 -8.504279 9.829694 -1.333209 -6.152888 -24.578758 -2.517468 -2.369084 26.868764 7.508944 0.000000 0.000000 0.000000 0.000000 0.000000 0.000000 4.473576 1.436294 -3.306325 -1.477322 -2.330165 1.160432 -4.311472 4.465650 2.019611 -1.883543 8.883787 -0.628557 0.000000 0.000000 0.000000 0.000000 0.000000 0.000000 -1.042762 9.722686 -14.224700 3.726170 -2.364799 0.561271 -4.671019 -6.452103 1.299369 0.000000 0.000000 0.000000 -1.085869 10.420751 -13.526648 1.617026 -3.522779 0.555752 -10.782554 21.013035 1.758093 0.000000 0.000000 0.000000
40.371747 79.479930 394.491129 6.052042 -9.112874 13.843010 0.424790 -0.434204 -13.196357 -0.475983 0.306180 0.229660 13.862385 1.366180 -1.657271 0.000000 0.000000 0.000000 0.485768 -1.364306 2.243075 -7.150761 11.166001 -1.759277 -4.459389 -24.304662 -3.750067 -6.107718 29.415355 10.406919 0.000000 0.000000 0.000000 0.000000 0.000000 0.000000 5.112401 1.639463 -3.761477 -2.346495 -1.877972 1.316548 -4.912691 4.297880 2.261946 -3.183122 7.346940 -0.318744 0.000000 0.000000 0.000000 0.000000 0.000000 0.000000 -1.169753 9.829758 -13.862364 3.092243 -1.505702 0.504783 -4.850452 -7.778584 1.247449 0.000000 0.000000 0.000000 -1.588913 15.819741 -12.584486 2.999667 -9.161845 0.436408 -11.056563 23.430650 0.883838 0.000000 0.000000 0.000000
39.752780 79.115767 394.305322 7.249066 -9.998578 13.208998 0.360171 -0.390095 -12.370331 -0.603684 0.334701 0.275218 10.915530 1.809892 -1.862045 0.000000 0.000000 0.000000 -0.910560 -2.844003 2.722959 -4.447451 12.119179 -2.495696 -7.612885 -22.805352 -3.036172 -5.335822 24.939265 9.541054 0.000000 0.000000 0.000000 0.000000 0.000000 0.000000 5.648827 1.651541 -4.275135 -3.182876 -0.777529 1.439842 -6.953645 4.553709 2.751801 -1.041221 5.154912 -0.613729 0.000000 0.000000 0.000000 0.000000 0.000000 0.000000 -1.366053 9.598034 -13.075079 2.336674 0.154753 0.405689 -4.774165 -9.765515 -0.739645 0.000000 0.000000 0.000000 -2.342889 21.448362 -11.213865 4.377502 -15.672174 0.505762 -11.977707 25.026231 1.118949 0.000000 0.000000 0.000000
39.120622 78.755373 394.112082 8.343405 -10.831748 12.268898 0.208201 -0.299759 -11.232484 -0.703965 0.344050 0.314209 8.512934 2.819188 -1.975341 0.000000 0.000000 0.000000 -2.672047 -4.006235 3.093851 -0.516692 12.011758 -3.430571 -13.059122 -20.556085 -1.210931 -3.798263 19.054149 7.865325 0.000000 0.000000 0.000000 0.000000 0.000000 0.000000 5.867470 1.640895 -4.681546 -3.721869 0.981192 1.426936 -8.682277 3.684851 3.239212 0.574202 3.599016 -0.877046 0.000000 0.000000 0.000000 0.000000 0.000000 0.000000 -1.636727 9.305757 -11.937186 1.829594 1.841325 0.287774 -5.001750 -9.559405 -3.149378 0.000000 0.000000 0.000000 -4.037266 28.700999 -9.052639 6.823896 -23.874143 0.973672 -9.846911 23.804935 -1.485259 0.000000 0.000000 0.000000
